<mxfile host="Electron" modified="2024-06-07T19:15:31.944Z" agent="Mozilla/5.0 (Windows NT 10.0; Win64; x64) AppleWebKit/537.36 (KHTML, like Gecko) draw.io/24.4.13 Chrome/124.0.6367.207 Electron/30.0.6 Safari/537.36" etag="tdXf4wTFqY7p08o6dCSt" version="24.4.13" type="device">
  <diagram name="Page-1" id="ZBeohLun6j88s_WVILH9">
    <mxGraphModel dx="448" dy="357" grid="1" gridSize="1" guides="1" tooltips="1" connect="1" arrows="1" fold="1" page="1" pageScale="1" pageWidth="827" pageHeight="1169" math="0" shadow="0">
      <root>
        <mxCell id="0" />
        <mxCell id="1" parent="0" />
        <mxCell id="EJdcwmjjuhQY6TTPsVkF-1" value="" style="pointerEvents=1;verticalLabelPosition=bottom;shadow=0;dashed=0;align=center;html=1;verticalAlign=top;shape=mxgraph.electrical.resistors.resistor_1;" parent="1" vertex="1">
          <mxGeometry x="400" y="330" width="100" height="20" as="geometry" />
        </mxCell>
        <mxCell id="EJdcwmjjuhQY6TTPsVkF-22" style="edgeStyle=orthogonalEdgeStyle;rounded=0;orthogonalLoop=1;jettySize=auto;html=1;exitX=0;exitY=0.5;exitDx=0;exitDy=0;exitPerimeter=0;entryX=0.5;entryY=0;entryDx=0;entryDy=0;endArrow=none;endFill=0;" parent="1" source="EJdcwmjjuhQY6TTPsVkF-2" target="EJdcwmjjuhQY6TTPsVkF-16" edge="1">
          <mxGeometry relative="1" as="geometry" />
        </mxCell>
        <mxCell id="EJdcwmjjuhQY6TTPsVkF-2" value="" style="pointerEvents=1;verticalLabelPosition=bottom;shadow=0;dashed=0;align=center;html=1;verticalAlign=top;shape=mxgraph.electrical.capacitors.capacitor_1;" parent="1" vertex="1">
          <mxGeometry x="333" y="225" width="100" height="60" as="geometry" />
        </mxCell>
        <mxCell id="EJdcwmjjuhQY6TTPsVkF-3" value="" style="pointerEvents=1;verticalLabelPosition=bottom;shadow=0;dashed=0;align=center;html=1;verticalAlign=top;shape=mxgraph.electrical.inductors.inductor_5;fontFamily=Times New Roman;" parent="1" vertex="1">
          <mxGeometry x="272" y="331" width="100" height="14" as="geometry" />
        </mxCell>
        <mxCell id="EJdcwmjjuhQY6TTPsVkF-8" style="edgeStyle=orthogonalEdgeStyle;rounded=0;orthogonalLoop=1;jettySize=auto;html=1;exitX=1;exitY=0.5;exitDx=0;exitDy=0;exitPerimeter=0;endArrow=none;endFill=0;" parent="1" source="EJdcwmjjuhQY6TTPsVkF-4" edge="1">
          <mxGeometry relative="1" as="geometry">
            <mxPoint x="520" y="340" as="targetPoint" />
          </mxGeometry>
        </mxCell>
        <mxCell id="EJdcwmjjuhQY6TTPsVkF-11" style="edgeStyle=orthogonalEdgeStyle;rounded=0;orthogonalLoop=1;jettySize=auto;html=1;exitX=0;exitY=0.5;exitDx=0;exitDy=0;exitPerimeter=0;endArrow=none;endFill=0;" parent="1" source="EJdcwmjjuhQY6TTPsVkF-16" edge="1">
          <mxGeometry relative="1" as="geometry">
            <mxPoint x="252.00000000000006" y="340" as="targetPoint" />
          </mxGeometry>
        </mxCell>
        <mxCell id="EJdcwmjjuhQY6TTPsVkF-4" value="" style="pointerEvents=1;verticalLabelPosition=bottom;shadow=0;dashed=0;align=center;html=1;verticalAlign=top;shape=mxgraph.electrical.resistors.resistor_1;" parent="1" vertex="1">
          <mxGeometry x="333" y="410" width="100" height="20" as="geometry" />
        </mxCell>
        <mxCell id="EJdcwmjjuhQY6TTPsVkF-5" style="edgeStyle=orthogonalEdgeStyle;rounded=0;orthogonalLoop=1;jettySize=auto;html=1;exitX=1;exitY=0.645;exitDx=0;exitDy=0;exitPerimeter=0;entryX=0;entryY=0.5;entryDx=0;entryDy=0;entryPerimeter=0;endArrow=none;endFill=0;" parent="1" source="EJdcwmjjuhQY6TTPsVkF-3" target="EJdcwmjjuhQY6TTPsVkF-1" edge="1">
          <mxGeometry relative="1" as="geometry" />
        </mxCell>
        <mxCell id="EJdcwmjjuhQY6TTPsVkF-7" style="edgeStyle=orthogonalEdgeStyle;rounded=0;orthogonalLoop=1;jettySize=auto;html=1;exitX=1;exitY=0.5;exitDx=0;exitDy=0;exitPerimeter=0;entryX=1;entryY=0.5;entryDx=0;entryDy=0;entryPerimeter=0;endArrow=none;endFill=0;" parent="1" source="EJdcwmjjuhQY6TTPsVkF-20" target="EJdcwmjjuhQY6TTPsVkF-1" edge="1">
          <mxGeometry relative="1" as="geometry" />
        </mxCell>
        <mxCell id="EJdcwmjjuhQY6TTPsVkF-12" value="R&lt;sub&gt;S&lt;/sub&gt;" style="text;strokeColor=none;align=center;fillColor=none;html=1;verticalAlign=middle;whiteSpace=wrap;rounded=0;fontSize=18;fontFamily=Times New Roman;" parent="1" vertex="1">
          <mxGeometry x="429.5" y="352" width="41" height="16" as="geometry" />
        </mxCell>
        <mxCell id="EJdcwmjjuhQY6TTPsVkF-13" value="L" style="text;strokeColor=none;align=center;fillColor=none;html=1;verticalAlign=middle;whiteSpace=wrap;rounded=0;fontSize=18;fontFamily=Times New Roman;" parent="1" vertex="1">
          <mxGeometry x="302.5" y="352" width="41" height="16" as="geometry" />
        </mxCell>
        <mxCell id="EJdcwmjjuhQY6TTPsVkF-14" value="C&lt;sub&gt;P&lt;/sub&gt;" style="text;strokeColor=none;align=center;fillColor=none;html=1;verticalAlign=middle;whiteSpace=wrap;rounded=0;fontSize=18;fontFamily=Times New Roman;" parent="1" vertex="1">
          <mxGeometry x="364" y="291" width="41" height="16" as="geometry" />
        </mxCell>
        <mxCell id="EJdcwmjjuhQY6TTPsVkF-15" value="R&lt;sub&gt;P&lt;/sub&gt;" style="text;strokeColor=none;align=center;fillColor=none;html=1;verticalAlign=middle;whiteSpace=wrap;rounded=0;fontSize=18;fontFamily=Times New Roman;" parent="1" vertex="1">
          <mxGeometry x="365" y="435" width="41" height="16" as="geometry" />
        </mxCell>
        <mxCell id="EJdcwmjjuhQY6TTPsVkF-18" value="" style="edgeStyle=orthogonalEdgeStyle;rounded=0;orthogonalLoop=1;jettySize=auto;html=1;exitX=0;exitY=0.645;exitDx=0;exitDy=0;exitPerimeter=0;entryX=0;entryY=0.5;entryDx=0;entryDy=0;entryPerimeter=0;endArrow=none;endFill=0;" parent="1" source="EJdcwmjjuhQY6TTPsVkF-3" target="EJdcwmjjuhQY6TTPsVkF-16" edge="1">
          <mxGeometry relative="1" as="geometry">
            <mxPoint x="272" y="340" as="sourcePoint" />
            <mxPoint x="333" y="255" as="targetPoint" />
          </mxGeometry>
        </mxCell>
        <mxCell id="EJdcwmjjuhQY6TTPsVkF-19" value="" style="edgeStyle=orthogonalEdgeStyle;rounded=0;orthogonalLoop=1;jettySize=auto;html=1;exitX=0;exitY=0.5;exitDx=0;exitDy=0;exitPerimeter=0;endArrow=none;endFill=0;" parent="1" source="EJdcwmjjuhQY6TTPsVkF-4" target="EJdcwmjjuhQY6TTPsVkF-16" edge="1">
          <mxGeometry relative="1" as="geometry">
            <mxPoint x="252.00000000000006" y="340" as="targetPoint" />
            <mxPoint x="333" y="420" as="sourcePoint" />
          </mxGeometry>
        </mxCell>
        <mxCell id="EJdcwmjjuhQY6TTPsVkF-23" style="edgeStyle=orthogonalEdgeStyle;rounded=0;orthogonalLoop=1;jettySize=auto;html=1;exitX=0;exitY=0.5;exitDx=0;exitDy=0;endArrow=oval;endFill=0;" parent="1" source="EJdcwmjjuhQY6TTPsVkF-16" edge="1">
          <mxGeometry relative="1" as="geometry">
            <mxPoint x="214.0123607494213" y="340.0185185185185" as="targetPoint" />
          </mxGeometry>
        </mxCell>
        <mxCell id="EJdcwmjjuhQY6TTPsVkF-16" value="" style="ellipse;whiteSpace=wrap;html=1;aspect=fixed;fillColor=#000000;" parent="1" vertex="1">
          <mxGeometry x="248" y="336" width="8" height="8" as="geometry" />
        </mxCell>
        <mxCell id="EJdcwmjjuhQY6TTPsVkF-21" value="" style="edgeStyle=orthogonalEdgeStyle;rounded=0;orthogonalLoop=1;jettySize=auto;html=1;exitX=1;exitY=0.5;exitDx=0;exitDy=0;exitPerimeter=0;entryX=0.5;entryY=0;entryDx=0;entryDy=0;endArrow=none;endFill=0;" parent="1" source="EJdcwmjjuhQY6TTPsVkF-2" target="EJdcwmjjuhQY6TTPsVkF-20" edge="1">
          <mxGeometry relative="1" as="geometry">
            <mxPoint x="433" y="255" as="sourcePoint" />
            <mxPoint x="500" y="340" as="targetPoint" />
          </mxGeometry>
        </mxCell>
        <mxCell id="EJdcwmjjuhQY6TTPsVkF-24" style="edgeStyle=orthogonalEdgeStyle;rounded=0;orthogonalLoop=1;jettySize=auto;html=1;exitX=1;exitY=0.5;exitDx=0;exitDy=0;endArrow=oval;endFill=0;" parent="1" source="EJdcwmjjuhQY6TTPsVkF-20" edge="1">
          <mxGeometry relative="1" as="geometry">
            <mxPoint x="556" y="340" as="targetPoint" />
          </mxGeometry>
        </mxCell>
        <mxCell id="EJdcwmjjuhQY6TTPsVkF-20" value="" style="ellipse;whiteSpace=wrap;html=1;aspect=fixed;fillColor=#000000;" parent="1" vertex="1">
          <mxGeometry x="516" y="336" width="8" height="8" as="geometry" />
        </mxCell>
      </root>
    </mxGraphModel>
  </diagram>
</mxfile>
